<svg width="24" height="24" viewBox="0 0 24 24" fill="none" xmlns="http://www.w3.org/2000/svg">
<path d="M20.8125 4.49979V8.99979C20.8125 9.14898 20.7532 9.29205 20.6477 9.39754C20.5423 9.50303 20.3992 9.56229 20.25 9.56229H15.75C15.6008 9.56229 15.4577 9.50303 15.3523 9.39754C15.2468 9.29205 15.1875 9.14898 15.1875 8.99979C15.1875 8.85061 15.2468 8.70754 15.3523 8.60205C15.4577 8.49656 15.6008 8.43729 15.75 8.43729H18.8925L17.2003 6.74979C15.7716 5.31482 13.8318 4.50557 11.8069 4.49979H11.7638C9.75624 4.49346 7.82689 5.27746 6.39281 6.68229C6.34062 6.73677 6.27801 6.7802 6.20869 6.80998C6.13938 6.83977 6.06478 6.8553 5.98934 6.85567C5.9139 6.85603 5.83915 6.84122 5.76955 6.8121C5.69995 6.78299 5.63692 6.74018 5.58421 6.6862C5.5315 6.63223 5.49018 6.56821 5.46271 6.49794C5.43525 6.42768 5.4222 6.3526 5.42435 6.27719C5.42649 6.20178 5.44378 6.12757 5.47519 6.05897C5.5066 5.99038 5.55149 5.92881 5.60719 5.87792C7.24966 4.26467 9.46152 3.36336 11.7638 3.36917H11.8125C14.1356 3.37509 16.3613 4.30346 18 5.95011L19.6875 7.63761V4.49979C19.6875 4.35061 19.7468 4.20754 19.8523 4.10205C19.9577 3.99656 20.1008 3.93729 20.25 3.93729C20.3992 3.93729 20.5423 3.99656 20.6477 4.10205C20.7532 4.20754 20.8125 4.35061 20.8125 4.49979ZM17.6072 17.3173C16.174 18.7242 14.2446 19.5103 12.2362 19.5054H12.1931C10.1682 19.4996 8.22838 18.6904 6.79969 17.2554L5.1075 15.5623H8.25C8.39918 15.5623 8.54226 15.503 8.64775 15.3975C8.75324 15.2921 8.8125 15.149 8.8125 14.9998C8.8125 14.8506 8.75324 14.7075 8.64775 14.602C8.54226 14.4966 8.39918 14.4373 8.25 14.4373H3.75C3.60082 14.4373 3.45774 14.4966 3.35225 14.602C3.24676 14.7075 3.1875 14.8506 3.1875 14.9998V19.4998C3.1875 19.649 3.24676 19.7921 3.35225 19.8975C3.45774 20.003 3.60082 20.0623 3.75 20.0623C3.89918 20.0623 4.04226 20.003 4.14775 19.8975C4.25324 19.7921 4.3125 19.649 4.3125 19.4998V16.3573L6 18.0495C7.63873 19.6961 9.86438 20.6245 12.1875 20.6304H12.2362C14.5385 20.6362 16.7503 19.7349 18.3928 18.1217C18.4485 18.0708 18.4934 18.0092 18.5248 17.9406C18.5562 17.872 18.5735 17.7978 18.5757 17.7224C18.5778 17.647 18.5647 17.5719 18.5373 17.5016C18.5098 17.4314 18.4685 17.3674 18.4158 17.3134C18.3631 17.2594 18.3 17.2166 18.2304 17.1875C18.1608 17.1584 18.0861 17.1436 18.0107 17.1439C17.9352 17.1443 17.8606 17.1598 17.7913 17.1896C17.722 17.2194 17.6594 17.2628 17.6072 17.3173Z" fill="#C1C1C1"/>
</svg>
