<svg width="24" height="24" viewBox="0 0 24 24" fill="none" xmlns="http://www.w3.org/2000/svg">
<path d="M19.5 3.9375H4.5C4.1519 3.9375 3.81806 4.07578 3.57192 4.32192C3.32578 4.56806 3.1875 4.9019 3.1875 5.25V10.5C3.1875 15.3694 5.5425 18.3188 7.51875 19.935C9.64969 21.6787 11.7628 22.2684 11.8519 22.2928C11.9489 22.3193 12.0511 22.3193 12.1481 22.2928C12.2372 22.2684 14.3503 21.6787 16.4813 19.935C18.4575 18.3188 20.8125 15.3694 20.8125 10.5V5.25C20.8125 4.9019 20.6742 4.56806 20.4281 4.32192C20.1819 4.07578 19.8481 3.9375 19.5 3.9375ZM19.6875 10.5C19.6875 14.04 18.3806 16.9116 15.8025 19.0369C14.6715 19.9656 13.3838 20.685 12 21.1613C10.616 20.6855 9.32823 19.966 8.1975 19.0369C5.61938 16.9116 4.3125 14.04 4.3125 10.5V5.25C4.3125 5.20027 4.33225 5.15258 4.36742 5.11742C4.40258 5.08225 4.45027 5.0625 4.5 5.0625H19.5C19.5497 5.0625 19.5974 5.08225 19.6326 5.11742C19.6677 5.15258 19.6875 5.20027 19.6875 5.25V10.5Z" fill="#C1C1C1"/>
</svg>
