<svg width="24" height="24" viewBox="0 0 24 24" fill="none" xmlns="http://www.w3.org/2000/svg">
<path d="M17.5013 13.7466L14.5013 12.2466C14.4127 12.2025 14.314 12.1826 14.2153 12.1888C14.1165 12.1951 14.0211 12.2273 13.9388 12.2822L12.4688 13.2619C11.7246 12.8809 11.1192 12.2754 10.7382 11.5312L11.7188 10.0622C11.7737 9.97985 11.8059 9.88448 11.8122 9.78572C11.8184 9.68696 11.7985 9.58829 11.7544 9.49969L10.2544 6.49969C10.2078 6.40583 10.1359 6.32687 10.0467 6.27171C9.95762 6.21655 9.85486 6.18738 9.75006 6.1875C8.80522 6.1875 7.89909 6.56283 7.23099 7.23093C6.56289 7.89903 6.18756 8.80517 6.18756 9.75C6.19004 11.8875 7.04027 13.9368 8.55175 15.4483C10.0632 16.9598 12.1125 17.81 14.2501 17.8125C15.1949 17.8125 16.101 17.4372 16.7691 16.7691C17.4372 16.101 17.8126 15.1948 17.8126 14.25C17.8126 14.1454 17.7835 14.043 17.7285 13.954C17.6735 13.8651 17.5948 13.7933 17.5013 13.7466ZM14.2501 16.6875C12.4108 16.6853 10.6475 15.9536 9.34697 14.6531C8.04642 13.3525 7.31479 11.5893 7.31256 9.75C7.31261 9.16172 7.52542 8.5933 7.91172 8.14962C8.29802 7.70594 8.83175 7.41694 9.41443 7.33594L10.6013 9.70969L9.62724 11.1703C9.57606 11.2473 9.54467 11.3358 9.53584 11.4279C9.52701 11.5199 9.54101 11.6128 9.57662 11.6981C10.0939 12.9279 11.0722 13.9062 12.3019 14.4234C12.3873 14.459 12.4801 14.473 12.5722 14.4642C12.6642 14.4554 12.7527 14.424 12.8297 14.3728L14.2904 13.3988L16.6641 14.5856C16.5831 15.1683 16.2941 15.702 15.8504 16.0883C15.4068 16.4746 14.8383 16.6874 14.2501 16.6875ZM12.0001 2.4375C10.3424 2.43715 8.71304 2.86774 7.27195 3.68703C5.83086 4.50632 4.62751 5.68616 3.77995 7.11081C2.93238 8.53545 2.46973 10.156 2.43737 11.8133C2.40501 13.4707 2.80406 15.108 3.59537 16.5647L2.50599 19.8337C2.42887 20.065 2.41768 20.3132 2.47367 20.5504C2.52966 20.7877 2.65063 21.0047 2.823 21.1771C2.99538 21.3494 3.21236 21.4704 3.44962 21.5264C3.68688 21.5824 3.93505 21.5712 4.1663 21.4941L7.43537 20.4047C8.71504 21.0991 10.1364 21.4922 11.591 21.5539C13.0457 21.6156 14.4952 21.3444 15.8291 20.7608C17.163 20.1772 18.346 19.2968 19.288 18.1866C20.2299 17.0764 20.9059 15.7657 21.2644 14.3546C21.6229 12.9435 21.6545 11.4691 21.3567 10.044C21.0588 8.61879 20.4395 7.28044 19.5459 6.13097C18.6523 4.98149 17.508 4.05125 16.2003 3.41117C14.8926 2.77108 13.456 2.43806 12.0001 2.4375ZM12.0001 20.4375C10.5169 20.4379 9.05979 20.0472 7.77568 19.305C7.69007 19.2558 7.59317 19.2296 7.49443 19.2291C7.4339 19.2294 7.37381 19.2392 7.31631 19.2581L3.81099 20.4263C3.77796 20.4373 3.7425 20.4389 3.70861 20.4309C3.67471 20.4229 3.64372 20.4056 3.61909 20.381C3.59447 20.3563 3.57719 20.3253 3.56919 20.2914C3.56119 20.2576 3.56279 20.2221 3.5738 20.1891L4.74193 16.6875C4.7672 16.6118 4.7761 16.5317 4.76801 16.4523C4.75993 16.3729 4.73506 16.2962 4.69506 16.2272C3.76436 14.6195 3.39026 12.7495 3.6308 10.9075C3.87134 9.06544 4.71306 7.35428 6.02539 6.03945C7.33773 4.72463 9.0473 3.87965 10.8889 3.63562C12.7305 3.39159 14.6011 3.76213 16.2106 4.68978C17.8201 5.61742 19.0784 7.05031 19.7904 8.76612C20.5024 10.4819 20.6283 12.3848 20.1484 14.1794C19.6686 15.9741 18.6099 17.5602 17.1366 18.6917C15.6633 19.8232 13.8577 20.4369 12.0001 20.4375Z" fill="white"/>
</svg>
